# xmcd
#
# Track frame offsets:
#	150
#	18680
#	37732
#	57157
#	78535
#
# Disc length: 1294 seconds
#
# Revision: 1
# Processed by: cddbd v1.5.1PL0 Copyright (c) Steve Scherf et al.
# Submitted via: EasyCDDAExtractor 6.5.0.1
#
DISCID=34050c05
DTITLE=Chic - Chic Mystique
DYEAR=1900
DGENRE=
TTITLE0=Chic Mystique(Single Version W/O Rap)
TTITLE1=Chic Mystique(Urban Single Version W/O Rap)
TTITLE2=Chic Mystique(Radio Mix With Rap)
TTITLE3=Chic Mystique(Lovely Radio Edit W/O Rap)
TTITLE4=Chic Mystique(CNA Mix)
EXTD=
EXTT0=
EXTT1=
EXTT2=
EXTT3=
EXTT4=
PLAYORDER=
